<!-- Leafy SUFFERING state | © 2026 SmartGrow AI Team -->
<svg xmlns="http://www.w3.org/2000/svg" viewBox="0 0 120 140" width="120" height="140">
  <defs>
    <radialGradient id="sk" cx="50%" cy="40%" r="60%">
      <stop offset="0%" stop-color="#ffd4a0"/>
      <stop offset="100%" stop-color="#f4b97a"/>
    </radialGradient>
    <linearGradient id="hr" x1="0%" y1="0%" x2="100%" y2="100%">
      <stop offset="0%" stop-color="#2dcc70"/>
      <stop offset="100%" stop-color="#1aaa55"/>
    </linearGradient>
  </defs>
  <!-- Mood glow -->
  <circle cx="60" cy="68" r="45" fill="#ff6644" opacity="0.2"/>
  <!-- Hair -->
  <path d="M35 55 C28 42 28 28 36 22 C41 18 46 28 44 42Z" fill="url(#hr)"/>
  <path d="M46 48 C41 35 43 20 51 16 C56 12 59 22 57 36Z" fill="url(#hr)"/>
  <path d="M60 44 C58 31 62 17 68 13 C72 9 75 20 72 34Z" fill="url(#hr)"/>
  <path d="M74 47 C76 34 80 20 87 18 C91 15 92 26 88 38Z" fill="url(#hr)"/>
  <path d="M84 55 C90 44 95 32 100 30 C104 27 103 38 98 48Z" fill="url(#hr)"/>
  <!-- Leaf -->
  <path d="M58 28 C52 16 50 5 57 2 C61 0 64 7 62 20Z" fill="#2dcc70"/>
  <path d="M62 28 C68 16 70 5 63 2 C59 0 56 7 58 20Z" fill="#1aaa55" opacity="0.8"/>
  <!-- Head -->
  <ellipse cx="60" cy="68" rx="26" ry="28" fill="url(#sk)"/>
  <ellipse cx="60" cy="52" rx="28" ry="16" fill="url(#hr)"/>
  <!-- Face elements -->

  <ellipse cx="49" cy="68" rx="9" ry="8" fill="white"/>
  <ellipse cx="49" cy="70" rx="7" ry="6" fill="#ff8855"/>
  <ellipse cx="49" cy="71" rx="3.5" ry="4" fill="#441100"/>
  <ellipse cx="52" cy="67" rx="2" ry="2" fill="white" opacity="0.8"/>
  <ellipse cx="71" cy="68" rx="9" ry="8" fill="white"/>
  <ellipse cx="71" cy="70" rx="7" ry="6" fill="#ff8855"/>
  <ellipse cx="71" cy="71" rx="3.5" ry="4" fill="#441100"/>
  <ellipse cx="74" cy="67" rx="2" ry="2" fill="white" opacity="0.8"/>
  <path d="M44 66 L49 62 L54 66" stroke="#aa4400" stroke-width="1.5" fill="none"/>
  <path d="M66 66 L71 62 L76 66" stroke="#aa4400" stroke-width="1.5" fill="none"/>
  <path d="M50 84 Q60 80 70 84" stroke="#cc3322" stroke-width="2" fill="none"/>
  <circle cx="44" cy="77" r="3" fill="#00d4ff" opacity="0.7"/>
  <circle cx="76" cy="78" r="2.5" fill="#00d4ff" opacity="0.6"/>
  <!-- Cheeks -->
  <ellipse cx="38" cy="78" rx="7" ry="4.5" fill="#ff9999" opacity="0.3"/>
  <ellipse cx="82" cy="78" rx="7" ry="4.5" fill="#ff9999" opacity="0.3"/>
  <!-- Body -->
  <path d="M36 96 C32 106 31 120 34 128 C42 134 52 136 60 136 C68 136 78 134 86 128 C89 120 88 106 84 96 C76 91 68 89 60 89 C52 89 44 91 36 96Z" fill="#1a5c30"/>
  <path d="M44 96 C38 88 36 80 42 75 C46 71 52 77 52 89Z" fill="#27ae60" opacity="0.8"/>
  <path d="M76 96 C82 88 84 80 78 75 C74 71 68 77 68 89Z" fill="#27ae60" opacity="0.8"/>
</svg>