<!-- Shop Item: Butterfly Wings | © 2026 SmartGrow AI Team -->
<svg xmlns="http://www.w3.org/2000/svg" viewBox="0 0 100 100" width="100" height="100">
  <rect width="100" height="100" rx="12" fill="#0d1e30" stroke="#00d4ff" stroke-width="1" opacity="0.9"/>
  <path d="M50 50 C20 30 10 10 25 5 C38 1 48 20 50 40Z" fill="#00d4ff" opacity="0.7"/><path d="M50 50 C20 60 5 75 15 85 C28 93 46 75 50 55Z" fill="#0088ff" opacity="0.7"/><path d="M50 50 C80 30 90 10 75 5 C62 1 52 20 50 40Z" fill="#00ff88" opacity="0.7"/><path d="M50 50 C80 60 95 75 85 85 C72 93 54 75 50 55Z" fill="#00cc66" opacity="0.7"/><ellipse cx="50" cy="50" rx="4" ry="15" fill="#1a3020"/>
  <text x="50" y="93" text-anchor="middle" font-family="sans-serif" font-size="8" fill="#8ab0c0">Butterfly Wings</text>
</svg>