<!-- Leafy THRIVING state | © 2026 SmartGrow AI Team -->
<svg xmlns="http://www.w3.org/2000/svg" viewBox="0 0 120 140" width="120" height="140">
  <defs>
    <radialGradient id="sk" cx="50%" cy="40%" r="60%">
      <stop offset="0%" stop-color="#ffd4a0"/>
      <stop offset="100%" stop-color="#f4b97a"/>
    </radialGradient>
    <linearGradient id="hr" x1="0%" y1="0%" x2="100%" y2="100%">
      <stop offset="0%" stop-color="#2dcc70"/>
      <stop offset="100%" stop-color="#1aaa55"/>
    </linearGradient>
  </defs>
  <!-- Mood glow -->
  <circle cx="60" cy="68" r="45" fill="#b44fff" opacity="0.2"/>
  <!-- Hair -->
  <path d="M35 55 C28 42 28 28 36 22 C41 18 46 28 44 42Z" fill="url(#hr)"/>
  <path d="M46 48 C41 35 43 20 51 16 C56 12 59 22 57 36Z" fill="url(#hr)"/>
  <path d="M60 44 C58 31 62 17 68 13 C72 9 75 20 72 34Z" fill="url(#hr)"/>
  <path d="M74 47 C76 34 80 20 87 18 C91 15 92 26 88 38Z" fill="url(#hr)"/>
  <path d="M84 55 C90 44 95 32 100 30 C104 27 103 38 98 48Z" fill="url(#hr)"/>
  <!-- Leaf -->
  <path d="M58 28 C52 16 50 5 57 2 C61 0 64 7 62 20Z" fill="#2dcc70"/>
  <path d="M62 28 C68 16 70 5 63 2 C59 0 56 7 58 20Z" fill="#1aaa55" opacity="0.8"/>
  <!-- Head -->
  <ellipse cx="60" cy="68" rx="26" ry="28" fill="url(#sk)"/>
  <ellipse cx="60" cy="52" rx="28" ry="16" fill="url(#hr)"/>
  <!-- Face elements -->

  <ellipse cx="49" cy="68" rx="10" ry="10" fill="white"/>
  <ellipse cx="49" cy="68" rx="8" ry="8" fill="#cc55ff"/>
  <ellipse cx="49" cy="68" rx="5" ry="5" fill="#330044"/>
  <ellipse cx="52" cy="65" rx="3" ry="3" fill="white" opacity="0.9"/>
  <ellipse cx="71" cy="68" rx="10" ry="10" fill="white"/>
  <ellipse cx="71" cy="68" rx="8" ry="8" fill="#cc55ff"/>
  <ellipse cx="71" cy="68" rx="5" ry="5" fill="#330044"/>
  <ellipse cx="74" cy="65" rx="3" ry="3" fill="white" opacity="0.9"/>
  <path d="M49 60 L50.5 64.5 L55 64 L51.5 67 L53 71.5 L49 69 L45 71.5 L46.5 67 L43 64 L47.5 64.5Z" fill="white" opacity="0.5"/>
  <path d="M71 60 L72.5 64.5 L77 64 L73.5 67 L75 71.5 L71 69 L67 71.5 L68.5 67 L65 64 L69.5 64.5Z" fill="white" opacity="0.5"/>
  <path d="M50 84 Q60 94 70 84" stroke="#cc6644" stroke-width="2.5" fill="none"/>
  <path d="M51 85 Q60 90 69 85 Q60 92 51 85Z" fill="white" opacity="0.7"/>
  <text x="5" y="20" font-size="10" fill="#ffdd00">✨</text>
  <text x="96" y="18" font-size="8" fill="#b44fff">⭐</text>
  <!-- Cheeks -->
  <ellipse cx="38" cy="78" rx="7" ry="4.5" fill="#ff9999" opacity="0.3"/>
  <ellipse cx="82" cy="78" rx="7" ry="4.5" fill="#ff9999" opacity="0.3"/>
  <!-- Body -->
  <path d="M36 96 C32 106 31 120 34 128 C42 134 52 136 60 136 C68 136 78 134 86 128 C89 120 88 106 84 96 C76 91 68 89 60 89 C52 89 44 91 36 96Z" fill="#1a5c30"/>
  <path d="M44 96 C38 88 36 80 42 75 C46 71 52 77 52 89Z" fill="#27ae60" opacity="0.8"/>
  <path d="M76 96 C82 88 84 80 78 75 C74 71 68 77 68 89Z" fill="#27ae60" opacity="0.8"/>
</svg>