<!-- SmartGrow AI Logo | © 2026 SmartGrow AI Team -->
<svg xmlns="http://www.w3.org/2000/svg" viewBox="0 0 48 48" width="48" height="48">
  <defs>
    <linearGradient id="logoBg" x1="0%" y1="0%" x2="100%" y2="100%">
      <stop offset="0%" stop-color="#1a3a8f"/>
      <stop offset="100%" stop-color="#0d2060"/>
    </linearGradient>
    <linearGradient id="leafGrad" x1="0%" y1="0%" x2="100%" y2="100%">
      <stop offset="0%" stop-color="#00ff88"/>
      <stop offset="100%" stop-color="#00d4ff"/>
    </linearGradient>
  </defs>
  <rect width="48" height="48" rx="12" fill="url(#logoBg)"/>
  <path d="M18 32 C12 28 10 20 14 15 C18 10 24 14 24 22 C24 26 22 30 18 32Z" fill="url(#leafGrad)" opacity="0.9"/>
  <path d="M30 32 C36 28 38 20 34 15 C30 10 24 14 24 22 C24 26 26 30 30 32Z" fill="url(#leafGrad)" opacity="0.7"/>
  <path d="M24 34 C24 30 24 22 24 18" stroke="#00ff88" stroke-width="2" stroke-linecap="round" fill="none"/>
  <circle cx="24" cy="16" r="2.5" fill="#00d4ff"/>
</svg>